<svg id="visual" viewBox="0 0 1024 370" width="1024" height="370" xmlns="http://www.w3.org/2000/svg" xmlns:xlink="http://www.w3.org/1999/xlink" version="1.1"><rect x="0" y="0" width="1024" height="370" fill="#0B5ED7"></rect><path d="M0 309L34.2 312.5C68.3 316 136.7 323 205 322.7C273.3 322.3 341.7 314.7 409.8 311.8C478 309 546 311 614.2 314.2C682.3 317.3 750.7 321.7 819 324.7C887.3 327.7 955.7 329.3 989.8 330.2L1024 331L1024 371L989.8 371C955.7 371 887.3 371 819 371C750.7 371 682.3 371 614.2 371C546 371 478 371 409.8 371C341.7 371 273.3 371 205 371C136.7 371 68.3 371 34.2 371L0 371Z" fill="#ff6584"></path><path d="M0 319L34.2 321.7C68.3 324.3 136.7 329.7 205 331.7C273.3 333.7 341.7 332.3 409.8 330.8C478 329.3 546 327.7 614.2 327.3C682.3 327 750.7 328 819 327.3C887.3 326.7 955.7 324.3 989.8 323.2L1024 322L1024 371L989.8 371C955.7 371 887.3 371 819 371C750.7 371 682.3 371 614.2 371C546 371 478 371 409.8 371C341.7 371 273.3 371 205 371C136.7 371 68.3 371 34.2 371L0 371Z" fill="#f1567d"></path><path d="M0 334L34.2 335.5C68.3 337 136.7 340 205 339.5C273.3 339 341.7 335 409.8 335C478 335 546 339 614.2 340.2C682.3 341.3 750.7 339.7 819 337.5C887.3 335.3 955.7 332.7 989.8 331.3L1024 330L1024 371L989.8 371C955.7 371 887.3 371 819 371C750.7 371 682.3 371 614.2 371C546 371 478 371 409.8 371C341.7 371 273.3 371 205 371C136.7 371 68.3 371 34.2 371L0 371Z" fill="#e34676"></path><path d="M0 355L34.2 354.5C68.3 354 136.7 353 205 350.8C273.3 348.7 341.7 345.3 409.8 345.2C478 345 546 348 614.2 349.7C682.3 351.3 750.7 351.7 819 352C887.3 352.3 955.7 352.7 989.8 352.8L1024 353L1024 371L989.8 371C955.7 371 887.3 371 819 371C750.7 371 682.3 371 614.2 371C546 371 478 371 409.8 371C341.7 371 273.3 371 205 371C136.7 371 68.3 371 34.2 371L0 371Z" fill="#d5366f"></path><path d="M0 359L34.2 357.8C68.3 356.7 136.7 354.3 205 353.2C273.3 352 341.7 352 409.8 352.7C478 353.3 546 354.7 614.2 355.5C682.3 356.3 750.7 356.7 819 356.5C887.3 356.3 955.7 355.7 989.8 355.3L1024 355L1024 371L989.8 371C955.7 371 887.3 371 819 371C750.7 371 682.3 371 614.2 371C546 371 478 371 409.8 371C341.7 371 273.3 371 205 371C136.7 371 68.3 371 34.2 371L0 371Z" fill="#c62368"></path></svg>