<svg id="visual" viewBox="0 0 1280 800" width="1280" height="800" xmlns="http://www.w3.org/2000/svg" xmlns:xlink="http://www.w3.org/1999/xlink" version="1.1"><rect x="0" y="0" width="1280" height="800" fill="#fff"></rect><path d="M0 29L42.7 31.5C85.3 34 170.7 39 256 77.3C341.3 115.7 426.7 187.3 512 196.2C597.3 205 682.7 151 768 118.7C853.3 86.3 938.7 75.7 1024 117.8C1109.3 160 1194.7 255 1237.3 302.5L1280 350L1280 0L1237.3 0C1194.7 0 1109.3 0 1024 0C938.7 0 853.3 0 768 0C682.7 0 597.3 0 512 0C426.7 0 341.3 0 256 0C170.7 0 85.3 0 42.7 0L0 0Z" fill="#3838F5" stroke-linecap="round" stroke-linejoin="miter"></path></svg>