<svg id="visual" viewBox="0 0 1366 768" width="1366" height="768" xmlns="http://www.w3.org/2000/svg" xmlns:xlink="http://www.w3.org/1999/xlink" version="1.1"><rect x="0" y="0" width="1366" height="768" fill="#fff"></rect><path d="M0 263L32.5 247.8C65 232.7 130 202.3 195 191.8C260 181.3 325 190.7 390 209.7C455 228.7 520 257.3 585.2 247.5C650.3 237.7 715.7 189.3 780.8 175.5C846 161.7 911 182.3 976 176.2C1041 170 1106 137 1171 126.3C1236 115.7 1301 127.3 1333.5 133.2L1366 139L1366 0L1333.5 0C1301 0 1236 0 1171 0C1106 0 1041 0 976 0C911 0 846 0 780.8 0C715.7 0 650.3 0 585.2 0C520 0 455 0 390 0C325 0 260 0 195 0C130 0 65 0 32.5 0L0 0Z" fill="#3838F5" stroke-linecap="round" stroke-linejoin="miter"></path></svg>